<mxfile host="app.diagrams.net" modified="2023-09-16T15:17:09.456Z" agent="Mozilla/5.0 (Windows NT 10.0; Win64; x64) AppleWebKit/537.36 (KHTML, like Gecko) Chrome/116.0.0.0 Safari/537.36" version="21.7.5" etag="z5QE0Z5eBwcU554fCW9x" type="github">
  <diagram name="PÃ¡gina-1" id="gcJhFy-tVyxwxT-UdP3k">
    <mxGraphModel>
      <root>
        <mxCell id="0" />
        <mxCell id="1" parent="0" />
      </root>
    </mxGraphModel>
  </diagram>
</mxfile>
